<svg width="21" height="20" viewBox="0 0 21 20" fill="none" xmlns="http://www.w3.org/2000/svg">
<path d="M13.2069 16.8794C13.7987 16.0566 13.6825 13.111 12.7664 11.2955C12.4574 10.6832 11.6218 10.9735 11.3329 11.5955C10.4902 13.4102 10.082 14.5835 6.96257 16.3723C7.93411 17.063 9.15296 17.5 10.4989 17.5C11.4763 17.5 12.3977 17.2698 13.2069 16.8794Z" fill="#FFE22A"/>
<path d="M12.7664 11.2955C13.6825 13.111 13.7987 16.0566 13.2069 16.8794C15.065 15.983 16.3322 14.2415 16.3322 12.5C16.3322 10.2205 15.4987 10.2083 14.2487 8.33327C13.4398 7.11996 14.0268 4.85978 14.5417 3.41567C14.757 2.81227 14.2846 2.14902 13.6546 2.26534C9.89095 2.96026 8.0853 5.21652 8.20633 9.19071C8.22017 9.64546 7.55782 9.88021 7.31641 9.49471L6.62457 8.38962C6.29737 7.86703 5.54193 7.87499 5.30749 8.44529C4.84289 9.57537 4.59008 10.9145 4.66553 12.5C4.73473 13.9539 5.60855 15.4096 6.96257 16.3723C10.082 14.5835 10.4902 13.4102 11.3329 11.5955C11.6218 10.9735 12.4574 10.6832 12.7664 11.2955Z" fill="#FFB700"/>
</svg>
