<svg width="24" height="24" viewBox="0 0 24 24" fill="none" xmlns="http://www.w3.org/2000/svg">
<path d="M21 10C19.3431 10 18 8.65685 18 7M3 10C4.65685 10 6 8.65685 6 7M21 14C19.3431 14 18 15.3431 18 17M3 14C4.65685 14 6 15.3431 6 17M5 7H19C20.1046 7 21 7.89543 21 9V15C21 16.1046 20.1046 17 19 17H5C3.89543 17 3 16.1046 3 15V9C3 7.89543 3.89543 7 5 7ZM14 12C14 13.1046 13.1046 14 12 14C10.8954 14 10 13.1046 10 12C10 10.8954 10.8954 10 12 10C13.1046 10 14 10.8954 14 12Z" stroke="#1D1D1D" stroke-width="1.25" stroke-linecap="round"/>
</svg>
