<svg width="160" height="40" viewBox="0 0 160 40" fill="none" xmlns="http://www.w3.org/2000/svg">
<mask id="path-1-inside-1_275_6005" fill="white">
<path d="M140 0C151.046 0 160 8.9543 160 20C160 31.0457 151.046 40 140 40C136.357 40 132.942 39.0251 130 37.3232C127.058 39.0251 123.643 40 120 40C116.357 40 112.942 39.0251 110 37.3232C107.058 39.0251 103.643 40 100 40C96.3569 40 92.9418 39.0251 90 37.3232C87.0582 39.0251 83.6431 40 80 40C76.3569 40 72.9418 39.0251 70 37.3232C67.0582 39.0251 63.6431 40 60 40C56.3569 40 52.9418 39.0251 50 37.3232C47.0582 39.0251 43.6431 40 40 40C36.3569 40 32.9418 39.0251 30 37.3232C27.0582 39.0251 23.6431 40 20 40C8.9543 40 0 31.0457 0 20C0 8.9543 8.9543 0 20 0C23.6429 0 27.0583 0.974059 30 2.67578C32.9417 0.974059 36.3571 0 40 0C43.6429 0 47.0583 0.974059 50 2.67578C52.9417 0.974059 56.3571 0 60 0C63.6429 0 67.0583 0.974059 70 2.67578C72.9417 0.974059 76.3571 0 80 0C83.6429 0 87.0583 0.974059 90 2.67578C92.9417 0.974059 96.3571 0 100 0C103.643 0 107.058 0.974059 110 2.67578C112.942 0.974059 116.357 0 120 0C123.643 0 127.058 0.974059 130 2.67578C132.942 0.974059 136.357 0 140 0Z"/>
</mask>
<path d="M140 0C151.046 0 160 8.9543 160 20C160 31.0457 151.046 40 140 40C136.357 40 132.942 39.0251 130 37.3232C127.058 39.0251 123.643 40 120 40C116.357 40 112.942 39.0251 110 37.3232C107.058 39.0251 103.643 40 100 40C96.3569 40 92.9418 39.0251 90 37.3232C87.0582 39.0251 83.6431 40 80 40C76.3569 40 72.9418 39.0251 70 37.3232C67.0582 39.0251 63.6431 40 60 40C56.3569 40 52.9418 39.0251 50 37.3232C47.0582 39.0251 43.6431 40 40 40C36.3569 40 32.9418 39.0251 30 37.3232C27.0582 39.0251 23.6431 40 20 40C8.9543 40 0 31.0457 0 20C0 8.9543 8.9543 0 20 0C23.6429 0 27.0583 0.974059 30 2.67578C32.9417 0.974059 36.3571 0 40 0C43.6429 0 47.0583 0.974059 50 2.67578C52.9417 0.974059 56.3571 0 60 0C63.6429 0 67.0583 0.974059 70 2.67578C72.9417 0.974059 76.3571 0 80 0C83.6429 0 87.0583 0.974059 90 2.67578C92.9417 0.974059 96.3571 0 100 0C103.643 0 107.058 0.974059 110 2.67578C112.942 0.974059 116.357 0 120 0C123.643 0 127.058 0.974059 130 2.67578C132.942 0.974059 136.357 0 140 0Z" fill="white"/>
<path d="M130 37.3232L130.501 36.4576L130 36.168L129.499 36.4576L130 37.3232ZM110 37.3232L110.501 36.4576L110 36.168L109.499 36.4576L110 37.3232ZM90 37.3232L90.5007 36.4576L90 36.168L89.4993 36.4576L90 37.3232ZM70 37.3232L70.5007 36.4576L70 36.168L69.4993 36.4576L70 37.3232ZM50 37.3232L50.5008 36.4576L50 36.168L49.4992 36.4576L50 37.3232ZM30 37.3232L30.5007 36.4576L30 36.168L29.4993 36.4576L30 37.3232ZM30 2.67578L29.4993 3.54139L30 3.83104L30.5007 3.54139L30 2.67578ZM50 2.67578L49.4993 3.54139L50 3.83104L50.5007 3.54139L50 2.67578ZM70 2.67578L69.4993 3.54139L70 3.83104L70.5007 3.54139L70 2.67578ZM90 2.67578L89.4993 3.54139L90 3.83104L90.5007 3.54139L90 2.67578ZM110 2.67578L109.499 3.54139L110 3.83104L110.501 3.54139L110 2.67578ZM130 2.67578L129.499 3.54139L130 3.83104L130.501 3.54139L130 2.67578ZM140 0V1C150.493 1 159 9.50659 159 20H160H161C161 8.40202 151.598 -1 140 -1V0ZM160 20H159C159 30.4934 150.493 39 140 39V40V41C151.598 41 161 31.598 161 20H160ZM140 40V39C136.538 39 133.295 38.0739 130.501 36.4576L130 37.3232L129.499 38.1888C132.589 39.9763 136.176 41 140 41V40ZM130 37.3232L129.499 36.4576C126.705 38.0739 123.462 39 120 39V40V41C123.824 41 127.411 39.9763 130.501 38.1888L130 37.3232ZM120 40V39C116.538 39 113.295 38.0739 110.501 36.4576L110 37.3232L109.499 38.1888C112.589 39.9763 116.176 41 120 41V40ZM110 37.3232L109.499 36.4576C106.705 38.0739 103.462 39 100 39V40V41C103.824 41 107.411 39.9763 110.501 38.1888L110 37.3232ZM100 40V39C96.5376 39 93.2946 38.0739 90.5007 36.4576L90 37.3232L89.4993 38.1888C92.589 39.9763 96.1763 41 100 41V40ZM90 37.3232L89.4993 36.4576C86.7054 38.0739 83.4624 39 80 39V40V41C83.8237 41 87.411 39.9763 90.5007 38.1888L90 37.3232ZM80 40V39C76.5376 39 73.2946 38.0739 70.5007 36.4576L70 37.3232L69.4993 38.1888C72.589 39.9763 76.1763 41 80 41V40ZM70 37.3232L69.4993 36.4576C66.7054 38.0739 63.4624 39 60 39V40V41C63.8237 41 67.411 39.9763 70.5007 38.1888L70 37.3232ZM60 40V39C56.5376 39 53.2946 38.0739 50.5008 36.4576L50 37.3232L49.4992 38.1888C52.589 39.9763 56.1763 41 60 41V40ZM50 37.3232L49.4992 36.4576C46.7054 38.0739 43.4624 39 40 39V40V41C43.8237 41 47.411 39.9763 50.5008 38.1888L50 37.3232ZM40 40V39C36.5376 39 33.2946 38.0739 30.5007 36.4576L30 37.3232L29.4993 38.1888C32.589 39.9763 36.1763 41 40 41V40ZM30 37.3232L29.4993 36.4576C26.7054 38.0739 23.4624 39 20 39V40V41C23.8237 41 27.411 39.9763 30.5007 38.1888L30 37.3232ZM20 40V39C9.50659 39 1 30.4934 1 20H0H-1C-1 31.598 8.40202 41 20 41V40ZM0 20H1C1 9.50659 9.50659 1 20 1V0V-1C8.40202 -1 -1 8.40202 -1 20H0ZM20 0V1C23.4624 1 26.7056 1.92533 29.4993 3.54139L30 2.67578L30.5007 1.81018C27.4109 0.0227909 23.8234 -1 20 -1V0ZM30 2.67578L30.5007 3.54139C33.2944 1.92533 36.5376 1 40 1V0V-1C36.1766 -1 32.5891 0.0227909 29.4993 1.81018L30 2.67578ZM40 0V1C43.4624 1 46.7056 1.92533 49.4993 3.54139L50 2.67578L50.5007 1.81018C47.4109 0.0227909 43.8234 -1 40 -1V0ZM50 2.67578L50.5007 3.54139C53.2944 1.92533 56.5376 1 60 1V0V-1C56.1766 -1 52.5891 0.0227909 49.4993 1.81018L50 2.67578ZM60 0V1C63.4624 1 66.7056 1.92533 69.4993 3.54139L70 2.67578L70.5007 1.81018C67.4109 0.0227909 63.8234 -1 60 -1V0ZM70 2.67578L70.5007 3.54139C73.2944 1.92533 76.5376 1 80 1V0V-1C76.1766 -1 72.5891 0.0227909 69.4993 1.81018L70 2.67578ZM80 0V1C83.4624 1 86.7056 1.92533 89.4993 3.54139L90 2.67578L90.5007 1.81018C87.4109 0.0227909 83.8234 -1 80 -1V0ZM90 2.67578L90.5007 3.54139C93.2944 1.92533 96.5376 1 100 1V0V-1C96.1766 -1 92.5891 0.0227909 89.4993 1.81018L90 2.67578ZM100 0V1C103.462 1 106.706 1.92533 109.499 3.54139L110 2.67578L110.501 1.81018C107.411 0.0227909 103.823 -1 100 -1V0ZM110 2.67578L110.501 3.54139C113.294 1.92533 116.538 1 120 1V0V-1C116.177 -1 112.589 0.0227909 109.499 1.81018L110 2.67578ZM120 0V1C123.462 1 126.706 1.92533 129.499 3.54139L130 2.67578L130.501 1.81018C127.411 0.0227909 123.823 -1 120 -1V0ZM130 2.67578L130.501 3.54139C133.294 1.92533 136.538 1 140 1V0V-1C136.177 -1 132.589 0.0227909 129.499 1.81018L130 2.67578Z" fill="#1D1D1D" mask="url(#path-1-inside-1_275_6005)"/>
</svg>
