<svg width="28" height="28" viewBox="0 0 28 28" fill="none" xmlns="http://www.w3.org/2000/svg">
<path d="M19.5933 5.96824C19.6011 5.6487 19.593 5.32703 19.5919 5.00735C19.5902 4.50907 19.5822 4.10471 20.1655 4.00904C20.8001 3.95176 20.7985 4.68206 20.7979 5.0862L20.7962 5.96824L22.5781 5.96808C22.8953 5.96786 23.223 5.94637 23.5385 5.97732C24.3544 6.05744 25.0259 6.7658 25.0726 7.57999C25.0856 7.80476 25.0765 8.03444 25.0763 8.25959L25.0763 21.1365C25.0764 21.4912 25.0878 21.8498 25.0736 22.2039C25.0367 23.1225 24.2813 23.8777 23.3728 23.9209C23.014 23.9379 22.6481 23.9256 22.2887 23.9257L5.67685 23.9249C5.13568 23.9242 4.57241 23.9945 4.05824 23.7922C3.09464 23.383 2.95926 22.5745 2.95863 21.6745L2.95903 11.0817C2.959 9.97853 2.94588 8.87373 2.95884 7.7708C2.96513 7.23546 3.09358 6.83952 3.48556 6.46054C4.11513 5.85181 4.90771 5.96775 5.71491 5.96808C6.20748 5.96824 6.7012 5.95916 7.19355 5.96824L7.19196 5.04894C7.19169 4.85351 7.17135 4.63408 7.21603 4.4436C7.31567 4.01899 7.93894 3.8895 8.23453 4.18655C8.52196 4.47549 8.43342 5.53123 8.42883 5.96824L11.7458 5.96835C12.2967 5.9683 12.8498 5.95572 13.4004 5.96824L13.3999 5.07762C13.3987 4.78693 13.3382 4.42584 13.5598 4.19513C13.8837 3.85793 14.4778 4.02587 14.5827 4.47247C14.6513 4.76479 14.613 5.61709 14.6142 5.96824C14.8571 5.95769 15.103 5.96704 15.3463 5.96764L16.6257 5.9683C17.6138 5.96835 18.6056 5.94987 19.5933 5.96824ZM8.42883 7.16431C8.34773 7.54187 8.52978 8.17537 8.39225 8.6068C8.29687 8.90589 7.98542 9.07515 7.67879 9.01614C7.17632 8.91934 7.19164 8.36503 7.19202 7.97462L7.19355 7.16431L5.44421 7.16398C4.02707 7.16371 4.21381 7.29611 4.21302 8.51608L4.21224 10.5928C4.41853 10.6046 4.6275 10.5933 4.83424 10.593L21.4729 10.5928H23.8533L23.8528 8.51176C23.8527 8.09794 24.0038 7.3193 23.4413 7.1846C22.983 7.07484 21.3648 7.18285 20.7962 7.16431L20.7977 7.94809C20.7989 8.25549 20.8526 8.62037 20.6087 8.8564C20.3716 9.08587 19.9557 9.05005 19.7435 8.8039C19.4926 8.51285 19.6137 7.57534 19.5933 7.16431H14.6142C14.6275 7.5743 14.6972 8.56644 14.433 8.8448C14.2097 9.07991 13.8035 9.08286 13.5807 8.84568C13.3595 8.61019 13.3978 8.29317 13.3984 7.99594L13.4004 7.16431L8.98457 7.16376C8.79961 7.16355 8.61357 7.15545 8.42883 7.16431ZM4.21224 11.7983L4.21246 21.1184C4.21224 21.4951 4.18371 21.8921 4.2272 22.2654C4.29278 22.8284 5.0848 22.6938 5.47335 22.6941L21.9026 22.6958C22.3441 22.6961 23.379 22.8207 23.6868 22.4937C23.9459 22.1571 23.8521 21.7035 23.8532 21.3029L23.853 12.6438C23.8529 12.363 23.8401 12.0786 23.8533 11.7983C22.5072 11.7779 21.1575 11.7983 19.8109 11.7983L5.04315 11.7979C4.76794 11.7976 4.4869 11.7849 4.21224 11.7983Z" fill="#1D1D1D"/>
<path d="M9.84201 15.517L8.46646 15.5177C8.22862 15.518 7.97208 15.5365 7.73633 15.505C7.05098 15.4134 7.00565 14.4232 7.75054 14.3003C7.8439 14.2885 7.95163 14.2985 8.04624 14.299L8.66224 14.3016C8.99983 14.3017 9.44854 14.271 9.77141 14.2987C10.4904 14.3605 10.5115 15.3548 9.84201 15.517Z" fill="#1D1D1D"/>
<path d="M15.0767 15.517C14.953 15.5296 14.823 15.5194 14.6986 15.5187L13.4066 15.5161C13.1867 15.5167 12.9505 15.5446 12.752 15.4285C12.2487 15.134 12.4026 14.4274 12.9392 14.3002C13.2647 14.2968 14.9523 14.2695 15.1406 14.329C15.7049 14.5074 15.6979 15.2392 15.0767 15.517Z" fill="#1D1D1D"/>
<path d="M20.3095 15.5169C19.6564 15.5082 18.8187 15.57 18.1864 15.5034C17.5043 15.4315 17.4459 14.4459 18.1269 14.3002C18.4713 14.2808 18.8267 14.3021 19.1723 14.3001L19.8929 14.2997C20.0798 14.2984 20.2676 14.2713 20.4444 14.3492C21.0044 14.596 20.8852 15.3002 20.3095 15.5169Z" fill="#1D1D1D"/>
<path d="M14.9804 20.1783C14.5319 20.1598 14.0738 20.1781 13.6245 20.1785C13.1855 20.1789 12.521 20.2402 12.4503 19.6434C12.4083 19.289 12.6374 19.0229 12.9851 18.9818C13.0888 18.9672 13.1964 18.9794 13.3008 18.9799L14.617 18.9805C14.754 18.9798 14.9025 18.9705 15.038 18.9912C15.7433 19.0992 15.699 20.1316 14.9804 20.1783Z" fill="#1D1D1D"/>
<path d="M20.216 20.1784C19.8437 20.2041 18.5262 20.2215 18.1763 20.1671C17.4609 20.0557 17.4961 19.0506 18.2392 18.9818L18.2639 18.98C18.6009 18.9577 20.0528 18.9431 20.3348 18.9975C21.0422 19.1339 20.9454 20.1509 20.216 20.1784Z" fill="#1D1D1D"/>
<path d="M9.84183 20.1783C9.72475 20.1914 9.60071 20.1809 9.48281 20.1801L8.16632 20.1791C7.95768 20.1811 7.71935 20.2136 7.53019 20.1053C7.00973 19.8069 7.22126 19.1032 7.75036 18.9817C8.26065 18.9568 9.27669 18.9384 9.77331 18.9898C10.5047 19.0654 10.5062 19.9819 9.84183 20.1783Z" fill="#1D1D1D"/>
</svg>
