<svg width="28" height="28" viewBox="0 0 28 28" fill="none" xmlns="http://www.w3.org/2000/svg">
<path d="M18.9713 6.51377C18.7583 6.15262 18.5982 5.85506 18.5914 5.42305C18.5766 4.48544 19.2874 3.68423 20.2435 3.67709C21.7255 3.60276 22.5572 5.24264 21.6138 6.51377C21.8815 6.72651 22.1325 7.07137 22.2487 7.39211L23.1887 7.39052C24.9563 7.38839 25.0912 8.04081 25.0858 9.64917L25.0876 12.435C25.0877 12.9769 25.1884 13.4259 24.4531 13.4399C24.4385 13.6055 24.4514 13.7823 24.4508 13.9491L24.4535 20.9995C24.4535 21.2888 24.5219 21.7598 24.3128 21.9958C24.141 22.1897 23.7722 22.2056 23.5877 22.0215C23.3078 21.7423 23.4172 21.1479 23.4182 20.7932L23.4188 13.4399H16.5229C16.5644 13.5521 16.6262 13.6609 16.6765 13.77C17.2692 15.0546 16.9297 16.1248 16.079 17.1332C17.5832 17.5782 18.8284 18.7827 19.1276 20.346C19.2027 20.7382 19.3022 23.5011 19.1882 23.8735C19.1023 24.1541 18.8943 24.2819 18.6167 24.293C18.0886 24.3141 17.5514 24.2949 17.0224 24.2945L10.9731 24.2945C10.4469 24.2945 9.91272 24.313 9.38723 24.2894C8.55707 24.2522 8.77959 23.2009 8.77954 22.6194C8.77943 21.4473 8.68132 20.4216 9.1973 19.3215C9.67691 18.299 10.5885 17.5966 11.63 17.2206C11.7303 17.1883 11.8328 17.1616 11.9342 17.1332C10.8568 16.0896 10.7896 14.6999 11.4619 13.4399C11.2134 13.4303 10.9611 13.4395 10.7121 13.4395L4.60617 13.4399C4.59479 14.0853 4.60592 14.7331 4.60597 15.3787L4.60625 20.8061C4.607 21.0802 4.62488 21.365 4.603 21.6379C4.55087 22.2881 3.65234 22.3066 3.56708 21.6627C3.53502 21.4206 3.55439 21.1573 3.55473 20.9125L3.55694 13.959C3.556 13.7858 3.56395 13.6129 3.55551 13.4399C2.88098 13.4258 2.91711 13.1266 2.91708 12.5425L2.91407 8.86326C2.91124 7.65691 3.8645 7.39167 4.86733 7.39156L5.78977 7.39211C5.92944 7.05496 6.13687 6.83058 6.38302 6.56726C5.05626 4.72433 7.22445 2.83047 8.73973 4.02458C9.5205 4.63987 9.66712 5.733 9.04445 6.51377C9.29781 6.7288 9.559 7.07383 9.66395 7.39211C10.4378 7.392 11.2134 7.40398 11.987 7.39211C12.1725 7.05529 12.355 6.77037 12.6463 6.51377C11.4376 4.83276 13.3637 2.90097 14.9667 3.96531C15.8706 4.56551 15.9181 5.6607 15.3442 6.51377C15.6563 6.73909 15.8324 7.05983 16.0099 7.39211C16.2602 7.37849 16.5173 7.39145 16.7685 7.39156L18.2854 7.39211C18.4725 7.05228 18.6525 6.74767 18.9713 6.51377ZM7.63422 4.73666C7.39124 4.76149 7.18075 4.91581 7.08395 5.14004C6.98721 5.36428 7.01931 5.6233 7.1679 5.81716C7.31648 6.01098 7.55831 6.10925 7.79998 6.07398C8.16272 6.02109 8.41663 5.68799 8.37157 5.3242C8.32645 4.96042 7.99887 4.69939 7.63422 4.73666ZM13.8831 4.73672C13.521 4.80026 13.2776 5.14361 13.3376 5.50632C13.3976 5.86906 13.7385 6.11581 14.1018 6.05943C14.4702 6.00228 14.7212 5.65551 14.6604 5.28766C14.5996 4.91983 14.2504 4.67229 13.8831 4.73672ZM20.1898 4.73749C19.8301 4.80099 19.5887 5.14217 19.6484 5.50244C19.708 5.86272 20.0466 6.10783 20.4075 6.05194C20.6444 6.0153 20.8433 5.85419 20.9284 5.63013C21.0136 5.40602 20.9717 5.15349 20.8189 4.96882C20.6661 4.78415 20.4258 4.69581 20.1898 4.73749ZM13.9006 7.0951C12.7227 7.18008 12.9659 8.43248 12.9613 9.24137H14.1229H15.0386L15.0391 8.48876C15.041 7.76245 14.8445 6.9504 13.9006 7.0951ZM20.1612 7.0951C19.3461 7.24451 19.2674 7.81823 19.2684 8.48143L19.2694 9.24137H20.4598C20.7329 9.2394 21.017 9.21654 21.2888 9.24137C21.3492 8.4111 21.4488 6.93684 20.1612 7.0951ZM7.63991 7.14142C6.51695 7.26529 6.68315 8.39661 6.69458 9.24137H7.86691H8.74246C8.72906 8.68279 8.87721 7.83984 8.45267 7.43066C8.29676 7.28038 7.86669 7.04539 7.63991 7.14142ZM10.7317 8.44539C10.408 8.44462 10.0842 8.44189 9.76047 8.44539C9.76905 8.75071 9.79716 9.5527 9.74297 9.83303C9.69211 10.0958 9.46876 10.2415 9.20741 10.2485C8.50725 10.267 7.80337 10.254 7.10282 10.2539C6.0619 10.2539 5.62762 10.5043 5.63123 9.24262L5.63304 8.44539L4.84628 8.4443C4.23438 8.44337 3.96846 8.38934 3.96856 9.09508C3.96871 10.2051 3.95987 11.3174 3.97229 12.4271L11.4004 12.4272C12.2847 12.4271 12.1654 12.5067 12.9652 12.1972C13.6543 11.9305 14.4768 11.9616 15.1548 12.2469C15.8171 12.5257 15.8069 12.4274 16.5511 12.4272L18.654 12.4271H24.048L24.0492 9.20254C24.0528 8.3551 23.8982 8.44408 23.1731 8.44473L22.3244 8.44539C22.3233 8.74284 22.3596 9.60635 22.3035 9.84829C22.1683 10.432 21.3306 10.2539 20.8705 10.254C20.1916 10.2543 19.5096 10.2679 18.8309 10.253C18.1572 10.2381 18.2211 9.73235 18.2218 9.21331C18.2221 8.95825 18.214 8.69996 18.2236 8.44539C17.5094 8.43336 16.7934 8.44566 16.079 8.44539L16.0806 9.3398C16.0811 9.56517 16.133 9.89789 15.959 10.0768C15.6753 10.3686 15.039 10.2535 14.6648 10.2535L12.6053 10.2594C11.9266 10.2565 11.9312 9.88083 11.9322 9.31629L11.9342 8.44539C11.5362 8.43784 11.1294 8.43248 10.7317 8.44539ZM13.8017 13.0839C12.7425 13.191 11.9699 14.1354 12.0748 15.1949C12.1797 16.2543 13.1224 17.0289 14.1821 16.9262C15.2449 16.8232 16.0222 15.877 15.917 14.8145C15.8119 13.7519 14.8641 12.9765 13.8017 13.0839ZM12.8568 18.019C11.9189 18.1459 11.0447 18.5159 10.4573 19.2864C9.82063 20.1216 9.84168 20.8604 9.84179 21.8485L9.8425 23.2685H15.2087H18.1699L18.1718 21.8978C18.1719 21.5909 18.1854 21.2777 18.1582 20.9719C17.9938 19.1192 16.5573 18.009 14.7386 18.0183C14.1327 18.0214 13.439 17.9974 12.8568 18.019Z" fill="#1D1D1D"/>
</svg>
