<svg width="28" height="28" viewBox="0 0 28 28" fill="none" xmlns="http://www.w3.org/2000/svg">
<path d="M13.484 7.49185C13.4979 7.15738 13.4842 6.81667 13.4841 6.48171L13.4835 4.46696C13.4835 3.93102 13.2725 2.98549 13.9813 2.90401C14.7214 2.78535 14.5342 4.10369 14.5343 4.49765L14.534 6.46859C14.5338 6.80929 14.5257 7.15125 14.5339 7.49185C14.7117 7.36689 14.9016 7.25942 15.0871 7.14644L15.8413 6.68181C16.4682 6.29813 17.0889 5.90252 17.7196 5.52556C18.5589 5.024 18.8793 5.93812 18.4969 6.25104C18.3439 6.37622 18.1611 6.47225 17.993 6.57588L15.9446 7.83364C15.6072 8.04424 15.2761 8.26622 14.926 8.45555C15.2435 8.67091 15.5718 8.86669 15.8925 9.07647L20.7014 12.1722C21.3381 12.5758 22.2795 13.0027 22.0778 13.9304C21.9747 14.4049 20.8034 16.0771 20.4884 16.5823L19.7902 17.7044C19.6836 17.876 19.5878 18.0627 19.467 18.2241C19.0254 18.8141 18.1889 18.9009 17.6099 18.4409C17.3616 18.2437 17.2198 17.962 17.051 17.7005L16.5301 16.889C15.9552 15.998 15.3971 15.096 14.8139 14.2105C14.6145 13.9078 14.4169 13.3843 14.0354 13.2928L14.0166 13.2885C13.6502 13.2964 13.4446 13.8404 13.2727 14.0949C12.4583 15.3006 11.6703 16.5348 10.9119 17.7772C10.5521 18.3667 10.1893 18.858 9.36863 18.7242C8.69051 18.6136 8.4221 18.0445 8.09611 17.5247L6.3874 14.8014C5.98326 14.1604 5.57469 13.4717 6.32456 12.8023C6.64416 12.5171 7.43904 12.0875 7.83711 11.8273L11.6528 9.3685C12.1235 9.06373 12.6123 8.77755 13.0713 8.45555L13.05 8.44505C12.8956 8.36706 12.7509 8.26387 12.6042 8.17216L10.2489 6.71605C10.0122 6.56878 9.74822 6.43003 9.53171 6.25498C9.20659 5.99204 9.3502 5.46274 9.75237 5.36001C10.0097 5.29427 10.3027 5.52873 10.5073 5.6556L11.153 6.05706C11.9271 6.5393 12.696 7.03274 13.484 7.49185ZM13.9813 9.08626C13.7728 9.27225 13.4153 9.46196 13.1725 9.61667C12.5759 9.99686 11.8741 10.4264 11.3029 10.837C11.4306 11.0159 11.5429 11.2057 11.6648 11.3887L12.7286 13.0088C13.0085 12.5719 13.5265 12.1917 14.0723 12.2677C14.5749 12.3178 15.0673 12.5865 15.2905 13.0551C15.7188 12.306 16.3101 11.5674 16.6936 10.837C15.8401 10.2701 14.7829 9.68755 13.9813 9.08626ZM10.4447 11.3968C9.59301 11.9109 8.70051 12.5059 7.86467 13.0563C7.61103 13.2234 7.123 13.4993 6.92169 13.6841C7.65084 14.8514 8.36036 16.0331 9.1069 17.1893C9.26194 17.429 9.41074 17.8549 9.75385 17.5988C9.92294 17.4726 10.3053 16.7987 10.4437 16.5774L11.5084 14.9121C11.6949 14.6199 11.9054 14.241 12.1194 13.9765C11.9806 13.7461 10.5036 11.4176 10.4447 11.3968ZM17.5565 11.3968C17.2906 11.848 16.9939 12.2801 16.7172 12.7248C16.4898 13.0903 16.1751 13.6518 15.9021 13.9765C16.4717 14.829 17.0114 15.703 17.5674 16.5644L17.9989 17.2425C18.4837 18.0008 18.5289 17.6966 18.903 17.1893C19.0781 16.8085 19.3453 16.4467 19.5691 16.0916L20.6847 14.3069C21.2342 13.4353 21.1244 13.6928 20.1872 13.0867L17.8494 11.5773C17.7562 11.5172 17.6571 11.443 17.5565 11.3968Z" fill="#1D1D1D"/>
<path d="M5.14135 5.7729C5.14642 5.3274 4.99083 4.66996 5.58904 4.58053C6.2833 4.44283 6.18213 5.34682 6.17994 5.7729C6.55138 5.91033 6.89317 6.04519 7.19215 6.31573C8.70984 7.68915 7.73744 10.2069 5.74583 10.2858C3.17579 10.3153 2.22051 6.68394 5.14135 5.7729ZM5.5711 6.73874C4.87851 6.78347 4.35228 7.37957 4.39379 8.07235C4.43529 8.76518 5.02893 9.29418 5.72193 9.25589C6.41953 9.21739 6.95278 8.61895 6.911 7.92157C6.86922 7.22414 6.26831 6.69367 5.5711 6.73874Z" fill="#1D1D1D"/>
<path d="M21.8421 5.77313C21.8394 5.25417 21.6835 4.74865 22.2998 4.58076L22.3532 4.57944C23.007 4.56063 22.9039 5.33509 22.9013 5.77313C25.5875 6.29414 25.0085 10.3716 22.4333 10.2861C22.0236 10.3568 21.4943 10.1634 21.1492 9.95563C19.4229 8.91651 19.839 6.24207 21.8421 5.77313ZM22.2264 6.74629C21.5339 6.8269 21.0373 7.45275 21.1161 8.14542C21.1948 8.83815 21.8193 9.33646 22.5122 9.25951C23.2078 9.18229 23.7084 8.55492 23.6293 7.85962C23.5502 7.16427 22.9215 6.66536 22.2264 6.74629Z" fill="#1D1D1D"/>
<path d="M20.9189 19.519C21.1484 19.0477 21.3551 18.5663 21.571 18.0887C21.7443 17.7055 21.8277 17.2678 22.2995 17.1895C23.3314 17.2687 22.6044 18.3564 22.3928 18.8111L22.091 19.4721C22.034 19.597 21.9817 19.7289 21.91 19.8461C22.3095 20.2086 22.7201 20.6728 23.1009 21.0663C23.3363 21.3097 23.8204 21.6517 23.8515 22.0146C23.886 22.4177 23.4166 22.7469 23.0749 22.5045C22.8628 22.354 22.6267 22.0658 22.4411 21.874L21.532 20.9532C21.4014 20.8212 21.277 20.6835 21.1439 20.554C20.7743 20.6283 19.805 20.9732 19.4652 21.1354C19.1701 21.2217 19.3379 21.2994 19.4857 21.5609C19.7086 21.955 20.3088 22.7374 20.0622 23.1205C19.8455 23.457 19.3697 23.442 19.1596 23.1199C18.8535 22.6509 18.5472 22.0082 18.2753 21.5077C17.7585 20.5564 17.9082 20.5691 18.8266 20.2273C19.2796 20.0586 20.4712 19.5818 20.9189 19.519Z" fill="#1D1D1D"/>
<path d="M6.10923 19.846C5.89994 19.3503 5.63667 18.8672 5.39596 18.3853C5.17737 17.9476 4.85372 17.4121 5.58909 17.2419C6.05055 17.2214 6.17983 17.6499 6.35696 17.9927C6.57467 18.4141 6.95694 19.0865 7.11777 19.5188C7.37502 19.63 7.65333 19.7085 7.91944 19.7964L9.01844 20.1673C9.26962 20.2515 9.76372 20.3435 9.91455 20.5898C10.1371 20.9533 9.78023 21.3586 9.62273 21.6729L9.15444 22.6105C8.97786 22.966 8.78126 23.5577 8.25844 23.3832C7.44666 23.1121 8.23805 22.0573 8.46686 21.6309C8.54107 21.4926 8.79258 21.1977 8.6388 21.1353C8.04183 20.9504 7.45509 20.7264 6.855 20.5539C6.39863 20.9987 5.95413 21.4606 5.50597 21.9143C5.19985 22.2242 4.7431 22.9068 4.2619 22.4535C3.75466 21.9757 4.50086 21.4526 4.80554 21.1493L6.10923 19.846Z" fill="#1D1D1D"/>
<path d="M14.0168 21.3216C14.391 21.0596 15.7773 20.0967 16.1479 19.9758C16.6241 19.9268 16.9598 20.4683 16.6489 20.7915C16.4882 20.9585 16.1374 21.146 15.9356 21.2759C15.4834 21.5668 14.9727 21.8917 14.534 22.2001C14.517 22.4159 14.5314 22.6339 14.5332 22.8502L14.5357 23.8728C14.536 24.1296 14.5897 24.4166 14.4225 24.6351C14.2447 24.8674 13.8857 24.9093 13.6627 24.7165C13.412 24.4997 13.4826 24.1174 13.4828 23.8241L13.4845 22.7889C13.4853 22.5985 13.4954 22.4039 13.485 22.214L13.4842 22.2001C13.4311 22.1553 13.3777 22.1111 13.3235 22.0677C12.9614 21.8607 12.6079 21.6399 12.2499 21.4263C11.8664 21.1974 10.8931 20.8269 11.308 20.2318C11.667 19.7167 12.1657 20.2108 12.5385 20.4294C13.0306 20.718 13.5502 20.9934 14.0168 21.3216Z" fill="#1D1D1D"/>
</svg>
