<svg width="28" height="28" viewBox="0 0 28 28" fill="none" xmlns="http://www.w3.org/2000/svg">
<path d="M10.4098 6.10478C11.4153 5.00543 12.0918 4.55824 13.6426 4.32812C15.1974 4.26236 16.606 4.86235 17.5868 6.10478C17.9383 6.13333 18.2985 6.08586 18.6515 6.10549C19.5527 6.15564 20.3525 6.84082 20.4879 7.74103C20.5459 8.12636 20.5115 8.52902 20.5164 8.91742C20.5298 9.96227 20.5206 11.0071 20.5194 12.0519L20.5248 16.3518C20.5261 16.5429 20.5355 16.7352 20.523 16.926C20.818 16.926 21.6023 16.8923 21.8421 16.9519C22.3231 17.0714 22.2287 17.6877 22.2288 18.0524C22.2289 18.6278 22.2096 19.2085 22.2277 19.7833L23.9388 19.7833C24.907 19.7817 25.0675 19.6868 25.0628 20.8608V22.6784C25.0656 23.8828 24.65 23.6143 23.5544 23.6136L14.3877 23.6138L3.80774 23.6154C3.28883 23.616 2.96378 23.6119 2.95739 22.9977L2.95609 21.0991C2.95607 19.8817 2.75415 19.7818 4.09937 19.7824L5.77767 19.7833L5.77717 18.1124C5.77706 17.1577 5.62022 16.9208 6.75422 16.9249L7.50869 16.926C7.52477 16.3258 7.50749 15.7216 7.50869 15.1209L7.50874 10.3122C7.5088 9.16887 7.23924 7.49691 8.12174 6.65773C8.75037 6.05988 9.60005 6.08318 10.4098 6.10478ZM13.9279 5.40031C13.027 5.40437 12.1455 5.80717 11.5141 6.44335C11.2208 6.73894 11.0953 7.16025 10.6217 7.16222C9.13373 7.16829 8.56378 7.02124 8.5716 8.6909L8.57247 16.926H14.0767H19.4506L19.4504 8.87449C19.4513 7.75755 19.521 7.14412 18.189 7.15342L17.5997 7.15774C16.945 7.16217 17.0348 7.0115 16.6154 6.56695C15.9128 5.82216 14.9637 5.3516 13.9279 5.40031ZM8.09587 17.9619C7.67144 17.9561 7.24679 17.9631 6.82225 17.9619C6.81317 18.5678 6.81602 19.1773 6.82225 19.7833H19.9283H21.1604V17.9619C20.6556 17.9386 20.1463 17.9609 19.6409 17.9619H8.09587ZM6.27051 20.8223H4.00922V22.5998C4.22108 22.5853 4.4337 22.5986 4.64589 22.5994L21.774 22.5998H24.0098V20.8223C23.3629 20.8391 22.7108 20.8222 22.0633 20.8222L6.27051 20.8223Z" fill="#1D1D1D"/>
<path d="M16.2102 13.7189L12.2211 13.7198C11.2515 13.7283 11.2762 13.6218 11.277 12.7645L11.2779 10.1932C11.2775 9.78603 11.1371 9.12726 11.6044 8.98163C11.9347 8.87871 12.4147 8.83217 12.7684 8.76004C13.8815 8.53325 15.0899 8.27633 16.2102 8.11232C16.7642 8.07147 16.7248 8.67648 16.7229 9.02631L16.7223 10.5904C16.7263 11.3513 16.7127 11.3649 15.9538 11.4955L15.0416 11.6556C14.1373 11.8137 13.2362 11.9899 12.3305 12.1401C12.326 12.3194 12.3266 12.4978 12.3305 12.6771C12.6502 12.6975 12.9854 12.6777 13.3067 12.6776L15.2952 12.6767C15.567 12.6762 16.0623 12.6471 16.3019 12.6896C16.9312 12.8012 16.8193 13.7159 16.2102 13.7189ZM15.6547 9.27623C14.6409 9.39392 13.346 9.69547 12.3305 9.89869L12.3299 10.6733C12.3299 10.7426 12.2881 11.0691 12.3746 11.0639L14.8931 10.6033C15.1467 10.5558 15.4023 10.5199 15.6547 10.4662C15.6555 10.3849 15.6708 9.28826 15.6604 9.27487L15.6547 9.27623Z" fill="#1D1D1D"/>
<path d="M16.2821 15.8671C16.0843 15.8866 15.8681 15.8684 15.6684 15.8677L12.7513 15.8671C12.4467 15.8672 11.8473 15.9393 11.574 15.8003C11.1036 15.5613 11.2423 14.9337 11.741 14.8039C12.6819 14.7858 13.627 14.8041 14.5683 14.8042L15.6614 14.8039C16.023 14.8036 16.5731 14.7159 16.7131 15.1642C16.8173 15.4984 16.5959 15.7769 16.2821 15.8671Z" fill="#1D1D1D"/>
</svg>
