<svg width="28" height="28" viewBox="0 0 28 28" fill="none" xmlns="http://www.w3.org/2000/svg">
<path d="M15.6943 9.89558C15.3791 10.2039 15.0732 10.5251 14.7643 10.84C13.8436 11.7785 13.8146 11.459 13.0163 10.6564L10.5131 8.11173C10.2836 7.88193 10.0026 7.64912 9.81646 7.38416C8.72993 5.83749 9.80804 3.78629 11.6869 3.5407C12.5232 3.43355 13.4566 3.90225 13.983 4.52497C14.6011 3.93381 15.1058 3.55067 16.0044 3.54412C17.8918 3.53037 19.1357 5.62962 18.178 7.28824C17.9559 7.67286 17.5923 7.97468 17.2849 8.2899L15.6943 9.89558ZM11.811 4.60849C10.7377 4.68929 10.0697 5.89688 10.7056 6.82137C10.9052 7.11155 11.2012 7.34692 11.4457 7.59952C12.2731 8.4544 13.1797 9.29079 13.983 10.155C14.5118 9.63259 15.1327 8.9007 15.6943 8.44209L15.7076 8.42415C16.3197 7.60663 17.5994 6.95946 17.449 5.83694C17.344 5.05329 16.5965 4.50022 15.8191 4.61583C15.2986 4.69325 14.9381 5.081 14.5974 5.4476C14.072 6.01287 13.8964 5.95977 13.3433 5.38724C12.959 4.98947 12.4204 4.47608 11.811 4.60849Z" fill="#1D1D1D"/>
<path d="M17.3782 15.0838C17.1844 14.913 16.9933 14.7435 16.8235 14.5479C15.5224 13.0496 15.7578 10.8208 17.238 9.5414C17.7737 9.07836 18.6724 8.69768 19.3915 8.74958C20.5249 8.61614 21.994 9.43996 22.4955 10.4315C22.6595 10.447 22.832 10.4325 22.9971 10.432L24.0538 10.4303C24.961 10.4299 25.0564 10.4841 25.0587 11.4663C25.0592 11.6874 25.076 11.9216 25.0517 12.1413C24.9281 13.2593 23.8316 13.7196 22.854 13.3416C22.5118 14.3396 22.2307 14.3933 21.6876 15.0663L21.6737 15.0838C23.2137 15.4203 24.4177 17.5122 24.4416 19.0131C24.4593 20.1177 24.4409 21.2251 24.4417 22.33L24.4428 23.3382C24.444 24.474 24.2725 24.4057 23.2058 24.4035L21.907 24.4038L15.7346 24.4043C15.4233 24.4043 14.9761 24.4876 14.8067 24.1429C14.6794 23.8837 14.7499 23.2354 14.7502 22.9378L14.7503 19.5677C14.7486 19.2798 14.7294 18.9952 14.7497 18.7073C14.8655 17.0598 15.9354 15.7758 17.3782 15.0838ZM19.3686 9.7881C18.0056 9.86493 16.9623 11.0309 17.0368 12.394C17.1112 13.757 18.2753 14.8023 19.6385 14.7303C21.0051 14.658 22.0536 13.4904 21.979 12.124C21.9043 10.7575 20.7348 9.71104 19.3686 9.7881ZM23.0198 11.5112L23.0228 11.5267C23.0727 11.7874 23.0152 12.1734 23.2582 12.3424C23.4377 12.4673 23.6594 12.4491 23.8314 12.3264L23.8671 12.3011C24.0598 12.0797 24.0108 11.7851 24.0069 11.5112C23.6804 11.5104 23.3446 11.4892 23.0198 11.5112ZM20.4004 15.7773C19.8015 15.806 19.1966 15.7457 18.5981 15.7773C18.7957 16.0452 18.9924 16.3137 19.1953 16.5777C19.3241 16.7454 19.4575 16.9111 19.5812 17.0825C19.8373 16.7489 20.0876 16.4163 20.331 16.0734C20.458 15.8943 20.6647 15.7572 20.4004 15.7773ZM17.5409 16.1693C15.6569 17.3666 15.7759 18.4663 15.7759 20.4134C15.7758 21.2036 15.7641 21.9957 15.7759 22.7857C16.0414 22.5291 16.3333 22.2987 16.6175 22.0629C17.4178 21.3935 18.1018 20.6494 18.7232 19.8125C19.0806 19.3314 19.0454 19.4025 19.0454 18.8301C19.0454 18.5899 19.0496 18.3487 19.044 18.1086C18.916 17.906 17.6098 16.201 17.5409 16.1693ZM21.5416 16.1693C21.0736 16.7615 20.502 17.4967 20.0826 18.1086V19.3993C20.8564 20.4513 21.5615 21.2968 22.603 22.1345C22.8535 22.355 23.1084 22.5893 23.3781 22.7857C23.3683 22.456 23.3781 22.1253 23.3781 21.7954L23.3776 19.8936C23.3778 19.4333 23.4225 18.8896 23.325 18.4437C23.1233 17.5217 22.4551 16.5247 21.5416 16.1693ZM19.5316 20.4366C18.7634 21.5614 17.7525 22.5192 16.6906 23.3654C17.6762 23.3839 18.6658 23.3653 19.6519 23.3654C20.5985 23.3651 21.5494 23.385 22.4955 23.3654C21.524 22.6522 20.5607 21.7665 19.8197 20.8071C19.726 20.6858 19.6366 20.5476 19.5316 20.4366Z" fill="#1D1D1D"/>
<path d="M5.90176 14.9029C5.75733 14.7224 5.59217 14.5596 5.45037 14.3766C3.74491 12.176 5.12925 9.10186 7.94455 8.7494C10.9264 8.50057 12.9296 12.1491 10.9609 14.4645C10.8267 14.6222 10.6694 14.7589 10.5209 14.9029C12.259 15.5031 13.6064 17.0564 13.6353 18.9475C13.6414 19.3502 13.5566 19.7501 13.4931 20.1461L12.9622 23.3516C12.8359 24.1488 12.9458 24.4044 12.0155 24.4043L8.71127 24.4036L4.697 24.4048C4.50161 24.4049 4.29099 24.4217 4.09892 24.3813L4.07242 24.3756C3.66184 24.2907 3.64274 23.4645 3.59083 23.146L3.09972 20.3001C3.03207 19.9105 2.96349 19.5199 2.95406 19.1237C2.91364 17.4257 4.18466 15.2996 5.90176 14.9029ZM7.98158 9.8169C6.63971 9.95657 5.66452 11.1568 5.80261 12.4989C5.94069 13.841 7.13977 14.8175 8.48202 14.6811C9.82651 14.5444 10.8051 13.3428 10.6668 11.9985C10.5285 10.6542 9.32574 9.67701 7.98158 9.8169ZM6.59049 15.7771C6.70008 16.2881 6.95225 16.7619 7.06512 17.2723L7.08536 17.2643C7.39101 17.1421 7.93219 16.7496 8.18332 16.6998C8.45244 16.6465 9.12203 17.1227 9.40591 17.2723C9.42615 17.2462 9.90439 15.9212 9.95142 15.7771C9.59983 15.7983 9.23841 15.7771 8.88545 15.777L6.59049 15.7771ZM5.57669 16.1691C3.88554 17.3976 3.87893 18.6218 4.19308 20.4442L4.69329 23.3652C4.94828 23.3863 5.20737 23.3661 5.46323 23.3655L11.8888 23.3652C11.9908 22.7303 12.1079 22.0968 12.2055 21.4615C12.3342 20.8002 12.5563 19.7436 12.5885 19.0852C12.6437 17.9577 11.8636 16.7736 10.9101 16.2127C10.714 16.6917 10.5474 17.1943 10.3804 17.6844C10.0635 18.6149 10.0252 18.8376 9.05903 18.2868L8.25649 17.8291C8.06476 17.9457 7.8617 18.0456 7.66581 18.1554C6.56637 18.7716 6.48287 18.8172 6.10705 17.6891L5.72544 16.5274C5.69991 16.451 5.659 16.1965 5.57669 16.1691Z" fill="#1D1D1D"/>
</svg>
