<svg width="299" height="92" viewBox="0 0 299 92" fill="none" xmlns="http://www.w3.org/2000/svg">
<path d="M116.78 0C116.78 0 115.52 8.9531 95.1865 18.0238C78.3165 25.5543 70.0052 34.5603 77.1267 53.4423C77.1267 53.4423 77.2386 44.9066 103.015 33.655C128.361 22.5856 116.78 0 116.78 0Z" fill="url(#paint0_linear_275_6166)"/>
<path d="M80.9687 53.5683V74.4608C80.9687 77.406 80.7861 79.4165 80.4209 80.4864C79.8731 82.0913 78.6597 82.8966 76.7925 82.8966C75.9678 82.8966 75.1726 82.7673 74.3951 82.5145C74.348 82.5145 74.0063 82.3852 73.3702 82.1324C73.1405 82.0501 72.9107 82.0031 72.6869 82.0031C72.3688 82.0031 72.1627 82.1383 72.0684 82.4087L70.5605 87.4819C70.4662 87.8464 70.4604 88.1521 70.5252 88.4049C70.5958 88.6576 70.9964 88.9163 71.7268 89.1926C72.4572 89.4689 73.3996 89.6805 74.5365 89.8451C75.6792 90.0038 76.8926 90.0861 78.1708 90.0861C83.3367 90.0861 86.7648 88.1051 88.4554 84.1488C88.9561 83.0083 89.2918 81.8385 89.4508 80.6334C89.6099 79.4283 89.6924 78.0938 89.6924 76.6359V45.4088C83.9198 49.0771 81.7639 51.9458 80.9687 53.5624V53.5683ZM71.8387 72.08C71.8387 72.3975 71.6561 72.6267 71.2909 72.7619L65.7363 74.8782C65.1414 75.1075 64.6701 74.8782 64.3049 74.1963C63.71 73.1088 63.3271 72.0624 63.1445 71.0571L62.8677 71.3275C61.4069 72.7678 59.9814 73.7319 58.5854 74.2257C57.1953 74.7195 55.6991 74.9664 54.097 74.9664C50.9928 74.9664 48.5247 74.0552 46.6987 72.2329C44.8727 70.4105 43.9597 67.9062 43.9597 64.7141C43.9597 62.3451 44.4604 60.3405 45.4676 58.7003C46.1509 57.5658 47.0462 56.6076 48.1418 55.8316C49.6026 54.7852 51.6466 54.0562 54.2737 53.6447C56.9008 53.2332 59.4218 53.0275 61.8428 53.0275V51.0053C61.8428 49.7472 61.8074 48.9477 61.7426 48.6127C61.672 48.2776 61.4481 47.8837 61.0594 47.4311C60.6706 46.9843 60.1876 46.6316 59.6221 46.3847C59.0508 46.1378 58.285 46.0143 57.3249 46.0143C56.459 46.0143 55.5401 46.1025 54.5859 46.2789C53.6257 46.4552 52.701 46.6786 51.8115 46.9373C50.9221 47.2018 50.1917 47.4428 49.6203 47.6662C49.0489 47.8896 48.672 47.9954 48.4894 47.9954C48.1713 47.9954 47.9416 47.772 47.8061 47.3194L46.3688 43.0456C46.2334 42.7752 46.1627 42.5283 46.1627 42.299C46.1627 41.9405 46.7458 41.4996 47.9062 40.9764C49.0666 40.4532 50.7218 40.024 52.8659 39.689C55.01 39.348 56.8124 39.1775 58.2732 39.1775C60.7354 39.1775 62.8088 39.4832 64.4993 40.1005C66.1898 40.7177 67.5329 41.864 68.5342 43.5453C68.9465 44.2272 69.3 45.1854 69.5945 46.4141C69.889 47.6427 70.0421 48.8948 70.0421 50.1646V63.2739C70.0421 64.961 70.0893 66.172 70.1776 66.9245C70.2719 67.6769 70.5723 68.6998 71.0788 69.999C71.5854 71.2982 71.8446 71.9918 71.8446 72.08H71.8387ZM61.8487 66.1544V58.6298H61.4363C58.4558 58.6298 56.1586 59.053 54.5564 59.8937C52.9542 60.7402 52.1473 62.1393 52.1473 64.1028C52.1473 65.4725 52.5831 66.5894 53.4549 67.4536C54.3267 68.3177 55.4046 68.7527 56.6887 68.7527C58.5206 68.7527 60.2406 67.8886 61.8487 66.1544ZM36.5673 27.6202C36.3847 27.3909 35.9959 27.2792 35.4069 27.2792H28.4327C28.0204 27.2792 27.7494 27.3733 27.614 27.5555C27.4785 27.7378 27.3371 28.0141 27.2016 28.3785L21.3879 45.5852C21.0698 46.5904 20.6103 47.9425 20.0213 49.6297C19.6561 50.9112 19.338 52.2809 19.0612 53.7447C18.9669 53.0157 18.7195 51.8459 18.3072 50.2469C17.8949 48.6479 17.4649 47.096 17.0054 45.5852L11.4685 28.3785C11.2388 27.6496 10.85 27.2792 10.3022 27.2792H3.0512C2.3208 27.2792 1.9556 27.7554 1.9556 28.7136L0 72.5385C0 73.4497 0.365202 73.9083 1.1015 73.9083H6.82102C7.55732 73.9083 7.92252 73.4556 7.92252 72.5444L8.5469 52.4161L8.88854 38.5426C9.11826 39.9535 9.4599 41.7112 9.91346 43.804C10.367 45.8968 10.8265 47.725 11.28 49.2711L15.2501 62.5332C15.2972 62.7154 15.3856 62.9564 15.5211 63.2504C15.6565 63.5443 15.9746 63.6913 16.4812 63.6913H21.3407C21.7943 63.6913 22.0829 63.5678 22.1948 63.315C22.3068 63.0622 22.4128 62.7977 22.5011 62.5273L26.6774 49.2299C27.2252 47.5369 27.6788 45.8497 28.044 44.1567C28.2737 43.0162 28.6801 41.1175 29.275 38.4721V49.418L29.8111 72.5385C29.8111 73.4497 30.1586 73.9083 30.8478 73.9083H37.763C38.4522 73.9083 38.7997 73.4556 38.7997 72.5385L36.8441 29.4661C36.8441 28.4667 36.7499 27.8495 36.5673 27.6261V27.6202ZM294.411 43.3396C291.761 40.5649 288.338 39.1834 284.139 39.1834C279.939 39.1834 276.558 40.5943 273.866 43.4101C270.809 46.5904 269.277 51.1581 269.277 57.1131C269.277 63.0681 270.803 67.771 273.866 70.9513C276.511 73.632 279.939 74.9723 284.139 74.9723C288.338 74.9723 291.714 73.6084 294.411 70.8808C297.469 67.7005 299 63.1093 299 57.1131C299 51.1169 297.469 46.5258 294.411 43.3396ZM288.928 64.6965C288.109 67.1067 286.512 68.3118 284.139 68.3118C281.765 68.3118 280.104 67.0832 279.285 64.6318C278.784 63.1798 278.531 60.6755 278.531 57.1307C278.531 53.7682 278.826 51.2698 279.421 49.6355C280.286 47.2253 281.859 46.0202 284.139 46.0202C286.418 46.0202 288.056 47.2488 288.928 49.7002C289.469 51.2463 289.746 53.7212 289.746 57.1307C289.746 60.5403 289.469 63.1093 288.928 64.6965ZM149.326 39.6184C148.619 39.3245 147.742 39.1775 146.693 39.1775C144.914 39.1775 143.342 39.6125 141.975 40.4767C140.838 41.2056 139.648 42.3931 138.417 44.0332L138.005 44.5799C137.911 43.7628 137.74 43.0104 137.493 42.3226C137.239 41.6406 136.909 40.9117 136.497 40.1357C136.314 39.8653 136.155 39.636 136.02 39.4538C135.879 39.2716 135.696 39.1834 135.472 39.1834L134.577 39.4538L129.364 41.5701C129.181 41.6642 128.975 41.864 128.745 42.1815C128.745 42.4519 128.857 42.8869 129.087 43.4806C130.041 46.0731 130.524 49.0536 130.524 52.4161V73.0206C130.524 73.6143 130.842 73.9083 131.484 73.9083H138.282C138.924 73.9083 139.242 73.6143 139.242 73.0206V50.3527C140.879 48.1718 142.747 47.0842 144.844 47.0842C145.073 47.0842 145.297 47.1195 145.527 47.1842C145.757 47.2488 146.028 47.3253 146.346 47.4076L147.577 47.7955C147.848 47.7955 148.054 47.5604 148.195 47.0842L150.316 41.4114C150.363 41.2762 150.381 41.1175 150.381 40.9352C150.381 40.3474 150.027 39.9123 149.32 39.6184H149.326ZM255.794 39.0012C253.792 39.0012 251.871 39.4714 250.051 40.4061C248.82 41.0175 247.383 42.0463 245.745 43.4983L245.333 43.851C244.832 42.3049 243.955 41.1116 242.7 40.2651C241.445 39.4185 239.979 39.0012 238.288 39.0012C236.28 39.0012 234.389 39.4714 232.61 40.4061C231.379 41.0175 229.942 42.0463 228.298 43.4983L227.892 43.851C227.709 43.1103 227.556 42.4754 227.444 41.9463C227.326 41.4173 227.179 40.9411 226.996 40.5237C226.631 39.5067 226.195 39.0012 225.689 39.0012C225.553 39.0012 225.206 39.0952 224.652 39.2716L219.421 40.9822C218.915 41.1175 218.662 41.4173 218.662 41.8758C218.85 42.6518 219.062 43.4042 219.298 44.1332C219.58 45.4147 219.763 46.5199 219.857 47.4546C219.952 48.3893 219.999 50.0235 219.999 52.3514V73.0323C219.999 73.6261 220.317 73.9259 220.959 73.9259H227.756C228.398 73.9259 228.716 73.6261 228.716 73.0323V49.0065C230.024 47.772 231.226 46.949 232.309 46.5375C232.893 46.3083 233.576 46.1966 234.342 46.1966C235.791 46.1966 236.733 46.7903 237.187 47.9837C237.411 48.5774 237.522 49.906 237.522 51.9635V73.0382C237.522 73.632 237.841 73.9318 238.483 73.9318H245.28C245.922 73.9318 246.24 73.632 246.24 73.0382V49.0124C247.106 48.1894 247.995 47.5486 248.908 47.0901C250.051 46.4964 251.076 46.1966 251.989 46.1966C253.314 46.1966 254.204 46.7256 254.657 47.7779C254.976 48.5539 255.135 49.953 255.135 51.9635V73.0382C255.135 73.632 255.453 73.9318 256.101 73.9318H262.898C263.54 73.9318 263.858 73.632 263.858 73.0382V49.8472C263.858 46.9667 263.493 44.7269 262.768 43.1221C261.537 40.3768 259.211 39.007 255.788 39.007L255.794 39.0012ZM179.12 66.7187C179.049 65.7664 179.014 64.6024 179.014 63.2386V26.1153C179.014 25.3863 178.931 24.9572 178.772 24.8161C178.613 24.6809 178.33 24.6574 177.912 24.7456L171.527 26.1094C170.808 26.2446 170.396 26.4504 170.29 26.7208V41.1821C168.599 39.8183 166.455 39.1305 163.864 39.1305C160.447 39.1305 157.62 40.2651 155.387 42.5401C152.336 45.6734 150.805 50.8113 150.805 57.9479C150.805 64.4026 152.124 69.0584 154.769 71.9213C156.683 73.92 159.169 74.9194 162.226 74.9194C165.69 74.9194 168.747 73.6614 171.391 71.1453L171.527 71.0101C171.71 71.8743 171.874 72.4856 172.01 72.8501C172.145 73.2146 172.387 73.7025 172.729 74.3198C173.07 74.9311 173.518 75.1016 174.072 74.8312L179.638 72.7149C180.05 72.5327 180.256 72.3269 180.256 72.0976L179.773 70.1871C179.408 68.8233 179.19 67.6652 179.12 66.707V66.7187ZM170.296 65.8781L169.889 66.3543C169.436 66.901 168.847 67.3536 168.116 67.7181C167.392 68.0826 166.438 68.2648 165.254 68.2648C164.347 68.2648 163.493 68.0826 162.697 67.7181C161.902 67.3536 161.266 66.7305 160.789 65.8428C160.312 64.9552 159.982 63.9264 159.799 62.7389C159.617 61.5573 159.528 59.6291 159.528 56.9426C159.528 52.4925 160.047 49.5591 161.095 48.1483C161.596 47.4663 162.197 46.9314 162.903 46.5493C163.604 46.1613 164.529 45.9673 165.66 45.9673C166.614 45.9673 167.398 46.0614 168.01 46.2377C168.623 46.4199 169.271 46.7139 169.954 47.1254L170.296 47.3311V65.8722V65.8781ZM109.743 39.1775C105.59 39.1775 102.162 40.5884 99.4703 43.4042C96.4132 46.5845 94.8817 51.1522 94.8817 57.1072C94.8817 63.0622 96.4132 67.7651 99.4703 70.9454C102.115 73.6261 105.543 74.9664 109.743 74.9664C113.943 74.9664 117.318 73.6026 120.016 70.8749C123.073 67.6946 124.604 63.1034 124.604 57.1072C124.604 51.1111 123.073 46.5199 120.016 43.3337C117.365 40.559 113.943 39.1775 109.743 39.1775ZM114.526 64.6906C113.707 67.1008 112.111 68.306 109.743 68.306C107.375 68.306 105.708 67.0773 104.889 64.626C104.389 63.1739 104.141 60.6697 104.141 57.1249C104.141 53.7623 104.436 51.2639 105.031 49.6297C105.897 47.2194 107.469 46.0143 109.749 46.0143C112.029 46.0143 113.666 47.243 114.532 49.6943C115.08 51.2404 115.351 53.7153 115.351 57.1249C115.351 60.5345 115.074 63.1034 114.532 64.6906H114.526ZM199.035 39.1775C194.882 39.1775 191.46 40.5884 188.762 43.4042C185.705 46.5845 184.174 51.1522 184.174 57.1072C184.174 63.0622 185.705 67.7651 188.762 70.9454C191.407 73.6261 194.835 74.9664 199.035 74.9664C203.235 74.9664 206.61 73.6026 209.308 70.8749C212.371 67.6946 213.896 63.1034 213.896 57.1072C213.896 51.1111 212.371 46.5199 209.308 43.3337C206.663 40.559 203.235 39.1775 199.035 39.1775ZM203.818 64.6906C202.999 67.1008 201.403 68.306 199.035 68.306C196.667 68.306 195 67.0773 194.181 64.626C193.675 63.1739 193.427 60.6697 193.427 57.1249C193.427 53.7623 193.728 51.2639 194.317 49.6297C195.183 47.2194 196.755 46.0143 199.035 46.0143C201.314 46.0143 202.958 47.243 203.818 49.6943C204.366 51.2404 204.637 53.7153 204.637 57.1249C204.637 60.5345 204.366 63.1034 203.818 64.6906Z" fill="#1D1D1D"/>
<defs>
<linearGradient id="paint0_linear_275_6166" x1="96.9948" y1="-47.3756" x2="96.9948" y2="100.812" gradientUnits="userSpaceOnUse">
<stop stop-color="#F39A11"/>
<stop offset="0.29" stop-color="#F29613"/>
<stop offset="0.67" stop-color="#EC6917"/>
<stop offset="1" stop-color="#E41B1A"/>
</linearGradient>
</defs>
</svg>
