<svg width="40" height="40" viewBox="0 0 40 40" fill="none" xmlns="http://www.w3.org/2000/svg">
<path d="M22.0102 9.57562C23.6225 7.07434 20.4401 5.39208 19.108 7.19516C18.4058 8.14578 19.0962 8.88 18.6607 9.43859C18.3974 9.77617 17.9165 9.79258 17.5954 9.52703C17.3542 9.32773 17.3311 8.84469 17.3146 8.55742C17.205 6.64422 18.6134 5.10552 20.523 5.00977C24.6814 5.02629 25.0456 10.7559 21.3275 11.5028C21.4327 12.7 20.0345 12.7793 19.8729 11.9141C19.7977 11.5113 19.7667 10.7102 20.0793 10.3795C20.3949 10.0456 20.8701 10.1771 21.2672 10.0337C21.5417 9.93445 21.7723 9.73906 22.0102 9.57562Z" fill="#1D1D1D"/>
<path d="M5.24876 11.3178C5.26178 11.0247 5.23403 10.7308 5.2554 10.4375C5.38677 8.63506 6.99784 7.30254 8.7431 7.19723C12.5208 7.11837 13.8691 12.0333 10.8301 13.995C9.98029 14.5434 9.38443 14.5531 8.42607 14.5524C8.01475 14.5521 7.43492 14.641 7.18527 14.2279C6.95085 13.84 7.11741 13.2978 7.57021 13.169C8.2767 12.9683 9.0917 13.3701 9.98006 12.856C11.6737 11.8761 11.3436 9.14576 9.39787 8.66341C8.14756 8.35341 7.00624 9.19005 6.70452 10.3928C7.31207 10.2517 7.87959 10.2521 8.4981 10.2518C9.04021 10.2514 9.956 10.1743 9.85514 11.0303C9.64576 11.9849 8.39576 11.5894 7.62004 11.6573C4.57274 11.9244 5.25237 16.7253 8.3681 16.065C8.69475 15.9958 9.02662 15.8783 9.35889 15.8442C10.2395 15.7539 11.0516 17.4979 8.00139 17.5389C4.69217 17.5833 2.92613 13.6808 5.24876 11.3178Z" fill="#1D1D1D"/>
<path d="M26.1952 11.6405C25.5556 11.2173 24.3741 9.86444 25.7383 9.57429C26.3454 9.50702 26.8717 10.2958 27.2534 10.6817C27.4692 10.3613 27.9699 9.87538 28.2865 9.6739C28.7359 9.3878 29.3169 9.70773 29.3602 10.2219C29.4111 10.8273 28.6489 11.2972 28.3023 11.7287L28.2827 11.7534C28.5302 11.9737 29.2312 12.6075 29.3323 12.902C29.4838 13.3435 29.2006 13.7283 28.785 13.8522C28.1407 13.9484 27.6402 13.1776 27.2534 12.7651C26.9387 13.0598 26.3684 13.7705 25.9697 13.8571C25.4443 13.9711 24.9509 13.3884 25.1445 12.8867C25.3094 12.4595 25.9184 12.0498 26.1952 11.6405Z" fill="#1D1D1D"/>
<path d="M15.8655 15.1941C15.2769 14.4421 14.3637 13.6009 13.69 12.9078C13.4442 12.655 13.1477 12.3991 12.9482 12.1076C12.6464 11.6664 12.8601 11.0519 13.4136 11.0296C13.8647 10.8616 14.2502 11.4516 14.5226 11.73L17.4066 14.6933C17.6383 14.9342 17.9021 15.1676 18.0994 15.4373C18.4142 15.8676 18.1526 16.503 17.6404 16.6091C17.2829 16.6832 16.4625 16.6393 16.0601 16.6393L12.6926 16.6389C12.2678 16.6365 11.4489 16.733 11.1274 16.45C10.8319 16.1899 10.8002 15.6826 11.0784 15.3979C11.414 15.0543 12.5832 15.194 13.0322 15.1941H15.8655Z" fill="#1D1D1D"/>
<path d="M20.6989 15.7992C19.7263 15.8415 19.7596 14.8694 19.8428 14.1496C19.8839 13.7956 20.1096 13.5982 20.444 13.4995C21.4463 13.4299 21.4287 14.447 21.3123 15.1777C21.2578 15.5199 21.0302 15.7163 20.6989 15.7992Z" fill="#1D1D1D"/>
<path d="M33.7025 19.4292C34.2395 18.9689 34.4974 18.3309 34.3272 17.619C33.8506 15.6255 30.8797 15.877 30.6714 17.9333C30.6379 18.2637 30.7033 18.6112 30.5162 18.9082C30.1465 19.495 29.3121 19.2282 29.2063 18.599C28.889 16.7112 30.4048 15.077 32.2254 14.7854C36.0049 14.4573 37.4214 20.0335 33.2451 21.1741C33.3354 22.4213 32.0155 22.429 31.8312 21.5672C31.7948 21.3971 31.8023 20.7591 31.8258 20.569C31.9316 19.7123 32.9768 19.9766 33.7025 19.4292Z" fill="#1D1D1D"/>
<path d="M17.0773 23.0862C15.5647 20.3713 17.245 16.8752 20.3331 16.7773C24.188 16.3092 26.5348 21.5783 23.0118 24.3281C24.516 25.7202 24.8447 26.9754 24.845 28.8942L24.8454 32.7284C24.846 33.098 24.9227 34.0495 24.7956 34.3758C24.5318 35.0528 23.6743 34.8696 23.1047 34.869L18.1366 34.8688C17.4057 34.8688 16.2384 35.1092 15.918 34.3406C15.8143 33.9527 15.8657 33.2863 15.8663 32.8735L15.8668 30.6113C15.4132 31.0977 15.0493 31.7214 14.4907 32.0975C12.8819 33.1808 10.7652 31.3683 11.6836 29.6786C11.7694 29.5207 11.8864 29.3778 11.9772 29.2217L12.9468 27.5407C13.2434 27.0193 13.5341 26.4952 13.8175 25.9665C14.498 24.6973 14.1015 25.0011 15.2459 24.2778C15.8615 23.8888 16.4684 23.4855 17.0773 23.0862ZM20.5287 18.1702C19.0189 18.2203 17.836 19.4853 17.8872 20.9951C17.9383 22.5049 19.2043 23.6869 20.714 23.6346C22.2222 23.5824 23.4028 22.3181 23.3516 20.8099C23.3005 19.3017 22.037 18.1201 20.5287 18.1702ZM17.9976 24.1809L16.504 25.1602C15.2047 26.0028 15.5839 25.7667 14.7871 27.1651L13.6736 29.1158C13.4828 29.4465 12.7476 30.4345 12.9782 30.7879C13.4407 31.4963 14.2077 30.3754 14.4514 30.0853L15.6135 28.6933C15.7822 28.4875 15.9514 28.2288 16.1616 28.0664C16.5832 27.7406 17.2076 28.0397 17.2818 28.5438C17.3943 29.3074 17.2838 30.6848 17.2976 31.5072C17.295 32.157 17.309 32.8077 17.2976 33.4574H23.3997L23.3998 30.0403C23.3998 28.3872 23.5904 26.9245 22.3221 25.6542C22.0725 25.4043 21.7723 25.2174 21.5211 24.9749C20.5411 25.1669 19.4712 25.0357 18.6031 24.5279C18.471 24.4506 18.1349 24.1958 17.9976 24.1809Z" fill="#1D1D1D"/>
<path d="M32.6509 25.3046C32.0954 25.3747 31.7258 24.8965 31.8032 24.3753C31.8836 23.8336 31.6165 23.2452 32.3812 23.0863C33.5283 22.9093 33.5847 25.1074 32.6509 25.3046Z" fill="#1D1D1D"/>
</svg>
