<svg width="40" height="40" viewBox="0 0 40 40" fill="none" xmlns="http://www.w3.org/2000/svg">
<path d="M15.8241 32.0517C14.0962 31.373 13.9235 30.0566 13.9243 28.4891L13.9259 26.9334C13.9285 24.5849 13.5352 23.9167 12.0535 22.305C6.38863 16.1427 9.49495 6.1369 17.8071 4.3958C18.3521 4.28166 18.9138 4.22404 19.4681 4.17887C23.6667 3.98634 27.768 6.35932 29.671 10.1202C31.698 14.1265 31.0172 19.0973 27.9225 22.3489C26.3685 23.9816 26.0135 24.9548 26.0139 27.3113L26.0164 28.7301C26.0304 30.4128 25.874 31.2089 24.1862 32.0517C23.6523 33.7783 22.4757 35.2655 20.5414 35.4277C20.3428 35.475 20.1013 35.4732 19.8982 35.4661C17.7101 35.3891 16.3566 34.0701 15.8241 32.0517ZM19.6371 5.85825C17.3671 5.88102 15.0658 6.96061 13.4874 8.57336C10.2802 11.8502 9.89972 17.0169 12.7654 20.6345C13.1475 21.1168 13.6123 21.521 14.0089 21.9884C15.0759 23.2456 15.5242 24.7395 15.5848 26.3661H19.1928L19.1929 22.1891C19.1924 21.4709 19.1702 20.7453 19.1928 20.028C18.6856 19.532 16.9906 17.9705 16.6428 17.4399C16.2643 16.8627 16.6625 16.0927 17.3579 16.1291C17.8403 16.1543 18.1269 16.611 18.4318 16.9252C18.9054 17.4133 19.4764 18.0232 19.9831 18.4703L20.1454 18.3389C20.4985 17.9512 20.8807 17.5899 21.247 17.2148C21.7108 16.7397 22.4725 15.638 23.2257 16.3769C23.6073 16.7511 23.5409 17.3027 23.1759 17.6577C22.504 18.3112 21.3869 19.3084 20.8171 20.028V26.3661H24.3743C24.2418 24.97 25.121 22.9855 26.0015 21.9214C26.4429 21.388 26.9625 20.9355 27.3857 20.3817C30.31 16.5545 29.5135 11.0277 25.8485 7.9875C24.1827 6.60558 21.8209 5.69327 19.6371 5.85825ZM23.007 28.0064C22.1912 27.9833 21.3698 28.0066 20.5532 28.0067L15.5848 28.0064L15.5831 28.8412C15.5811 30.0041 15.7584 30.4164 16.9814 30.467L22.72 30.4683C24.0387 30.471 24.3742 30.2984 24.3768 28.918L24.3769 28.1691C24.3766 28.1148 24.3756 28.0606 24.3743 28.0064C24.0023 27.9767 23.3864 27.9756 23.007 28.0064ZM17.7072 32.1085L17.6577 32.121C17.6325 32.1914 17.685 32.2813 17.715 32.3451C18.4271 33.8584 20.4214 34.2916 21.681 33.1593C22.0141 32.8506 22.2325 32.5376 22.382 32.1085L19.2463 32.1078C18.7648 32.1077 18.1781 32.0763 17.7072 32.1085Z" fill="#1D1D1D"/>
<path d="M20.145 9.49305C17.2586 9.44086 14.6508 11.7448 14.5002 14.6731C14.4788 15.0904 14.5567 15.5434 14.2741 15.8936C13.7732 16.5143 12.8208 16.132 12.7894 15.2416C12.6517 11.3209 15.8604 7.94672 19.7661 7.8243C23.5706 7.61151 27.0387 10.8773 27.1698 14.6595C27.1834 15.0521 27.2644 15.5813 26.964 15.8894C26.5565 16.3073 25.812 16.1669 25.5893 15.6223C25.4706 15.332 25.5144 14.8636 25.4859 14.5423C25.2461 11.8395 22.882 9.53852 20.145 9.49305Z" fill="#1D1D1D"/>
</svg>
