<svg width="40" height="40" viewBox="0 0 40 40" fill="none" xmlns="http://www.w3.org/2000/svg">
<path d="M11.9209 20.7465C7.92568 21.0278 4.46045 18.0137 4.18537 14.0181C3.91028 10.0225 6.92978 6.56188 10.9258 6.29299C14.9131 6.02469 18.3644 9.03615 18.639 13.023C18.9134 17.0099 15.9073 20.4658 11.9209 20.7465ZM11.0046 7.85631C7.87412 8.08475 5.52262 10.8092 5.75417 13.9394C5.98573 17.0696 8.71255 19.4184 11.8425 19.1837C14.968 18.9494 17.3129 16.2272 17.0816 13.1015C16.8504 9.97569 14.1306 7.62817 11.0046 7.85631Z" fill="#1D1D1D"/>
<path d="M14.8265 14.3848C14.2443 14.3971 11.2244 14.4767 10.86 14.2671C10.4176 14.0127 10.5122 13.4443 10.5127 13.0173L10.5151 10.7324C10.5161 10.1992 10.5021 9.64329 11.1487 9.53751C12.1127 9.40649 12.073 10.3676 12.0726 10.9938C12.0722 11.6011 12.0533 12.212 12.0709 12.8188C12.9115 12.861 14.0021 12.7313 14.7825 12.827C15.7168 12.9417 15.7077 14.1686 14.8265 14.3848Z" fill="#1D1D1D"/>
<path d="M21.8806 17.4412L21.8811 24.2245C21.8835 24.7889 22.0086 25.522 21.2814 25.7027C20.2533 25.9581 20.3155 24.8127 20.3155 24.23L20.3158 18.3938C20.317 17.6066 19.9886 16.0509 20.9966 15.8984C21.426 15.867 21.9102 15.8978 22.3452 15.8978L29.0342 15.8979C29.4445 15.8979 31.1971 15.8003 31.4986 15.9919C32.0552 16.3458 31.9083 17.0355 31.9069 17.5969C31.9053 18.246 32.0994 19.3881 31.1786 19.5055C29.9872 19.6574 30.3395 18.1006 30.2958 17.4412H25.0508H21.8806Z" fill="#1D1D1D"/>
<path d="M31.4931 33.4432C31.0646 33.5355 30.7772 33.3236 30.5528 32.9895C29.9278 32.0587 29.3694 31.0347 28.7742 30.0779L27.815 28.5291C27.5891 28.1696 27.3297 27.8068 27.1491 27.4227C25.7983 24.5502 27.9187 21.3059 31.0321 21.0848C34.37 20.7441 36.8465 24.5511 35.3271 27.6345C35.2077 27.8771 35.0488 28.1012 34.9068 28.3309L32.669 31.9443C32.378 32.4193 32.0588 33.2522 31.4931 33.4432ZM31.0321 22.6251C29.1271 22.8078 27.6909 24.8546 28.5443 26.6791C28.8093 27.2457 29.1908 27.7826 29.5179 28.3153L31.2879 31.2093L31.3934 31.0548L33.5431 27.5559C34.0611 26.7075 34.4223 25.9489 34.1773 24.9165C33.8731 23.6356 32.3638 22.3473 31.0321 22.6251Z" fill="#1D1D1D"/>
<path d="M26.02 27.8982C26.1982 28.3135 25.9763 28.7923 25.5395 28.9102C25.2328 28.9929 24.3365 28.9448 23.9695 28.9448L13.5554 28.9469C13.1158 28.9472 12.5422 29.0422 12.1478 28.8073C11.5773 28.4676 11.0341 28.0626 10.4784 27.6972L9.4536 27.0203C8.79852 26.5828 8.1882 26.0237 9.12531 25.3991C9.59477 25.0862 10.0855 24.7963 10.5664 24.5012L14.5183 22.0034C14.8088 21.8197 15.27 21.4366 15.6034 21.3687L17.3917 21.3665C17.6763 21.3662 18.0325 21.3269 18.3091 21.392C18.8871 21.5279 19.0709 22.2793 18.6533 22.6815C18.3431 22.9801 17.8663 22.8944 17.4765 22.8937L16.0204 22.8937C15.5209 23.2442 14.998 23.555 14.4821 23.8801L12.5612 25.0976C12.0216 25.4344 11.4533 25.7559 10.9514 26.1465C12.1159 26.9748 12.368 27.4185 13.6929 27.4141L24.3884 27.4123C25.0126 27.4124 25.688 27.2372 26.02 27.8982Z" fill="#1D1D1D"/>
</svg>
