<svg width="36" height="40" viewBox="0 0 36 40" fill="none" xmlns="http://www.w3.org/2000/svg">
<path d="M18.1951 9.54003C17.1132 9.67941 17.2935 8.61578 17.2932 7.90812L17.2937 4.63135C17.294 4.00185 17.1267 3.25824 17.8552 3.00292C19.0607 2.92925 18.771 4.26483 18.7711 5.07492L18.7732 8.1586C18.7774 8.7129 18.88 9.36594 18.1951 9.54003Z" fill="#1D1D1D"/>
<path d="M11.1874 11.446C10.4828 11.5076 10.1166 10.8578 9.66406 10.4052L8.11222 8.82947C7.83721 8.54749 7.5329 8.26958 7.28594 7.96347C6.90581 7.49232 7.12813 6.863 7.71186 6.7739C8.366 6.56373 9.4682 8.06889 9.93815 8.54613C10.2343 8.84674 11.6284 10.116 11.7149 10.4091C11.8577 10.8931 11.6887 11.3248 11.1874 11.446Z" fill="#1D1D1D"/>
<path d="M25.1007 11.4458C24.5292 11.45 24.0137 10.9633 24.356 10.3665C24.5224 10.0764 24.8826 9.77084 25.1211 9.52629L26.6415 7.97779C27.0564 7.55347 27.448 6.92001 28.0475 6.77366C28.4172 6.75097 28.7446 6.90459 28.8485 7.293C28.9992 7.85602 28.487 8.1822 28.149 8.52769L26.0573 10.6923C25.7646 10.9955 25.521 11.3349 25.1007 11.4458Z" fill="#1D1D1D"/>
<path d="M21.6947 10.0581C21.1815 10.0243 20.7816 9.72155 20.8723 9.17292C20.9627 8.6259 21.1986 7.62298 21.8056 7.47538C22.8916 7.31416 22.6428 8.37958 22.4416 9.00712C22.2832 9.5008 22.2191 9.8379 21.6947 10.0581Z" fill="#1D1D1D"/>
<path d="M14.5967 10.0574C13.7691 10.1165 13.5374 9.07518 13.4051 8.41867C13.3048 7.9206 13.5476 7.55377 14.0412 7.4746C14.8107 7.38924 15.0264 8.44619 15.1833 9.02404C15.3263 9.55056 15.1123 9.92467 14.5967 10.0574Z" fill="#1D1D1D"/>
<path d="M16.1433 15.4219C16.249 15.021 17.3004 12.0145 17.4722 11.7924C17.6058 11.6196 17.7698 11.5662 17.9755 11.5419C18.5164 11.431 18.7051 12.0254 18.8515 12.4131C19.2265 13.4056 19.612 14.4134 19.9395 15.4219L22.3182 15.6749C22.7068 15.7143 23.1521 15.7136 23.5298 15.8094C23.9556 15.9174 24.1452 16.5457 23.8772 16.8887C23.3355 17.582 21.6948 18.32 21.0522 19.1369C21.3861 20.2487 21.8208 21.3395 22.1331 22.4219C22.3045 23.0155 21.8364 23.5673 21.2209 23.3386C20.8905 23.2159 20.5685 22.9765 20.2701 22.7897L18.1958 21.4628C18.1364 21.4231 18.0811 21.3836 18.0271 21.3365C17.1863 21.9054 15.8957 22.8418 15.0001 23.2872C14.4341 23.5687 13.7725 23.1255 13.8902 22.4617C14.0215 21.7213 14.7331 19.8659 15.0056 19.1369C14.758 18.8892 14.4692 18.6966 14.1932 18.484L12.5943 17.2602C12.3684 17.086 12.2195 16.912 12.1863 16.6116C12.0761 15.6139 13.3624 15.7009 13.9862 15.6402L16.1433 15.4219ZM18.0271 14.5538C17.8969 14.9824 17.4342 16.632 17.0891 16.8268C16.8397 16.9675 15.3465 17.0477 14.9309 17.104C15.2276 17.3514 15.5343 17.5848 15.8406 17.8196C17.1637 18.8333 16.7232 18.8044 16.2689 20.2675C16.2161 20.4375 16.1875 20.6083 16.1433 20.7796C16.4374 20.4755 17.568 19.5969 18.0271 19.6264C18.4514 19.7225 19.512 20.4941 20.0055 20.7796C19.8534 20.3901 19.229 18.7793 19.3893 18.4447C19.4659 18.2849 20.8147 17.2623 21.0522 17.104C20.525 17.0172 19.0952 17.0538 18.8367 16.679C18.5954 16.3292 18.1829 14.7246 18.0271 14.5538Z" fill="#1D1D1D"/>
<path d="M9.37644 14.9596C8.95727 15.0005 7.8693 14.5622 7.58338 14.3088C7.0868 13.8688 7.36431 13.1677 7.90609 12.9559C8.34016 12.9028 9.748 13.4171 9.90806 13.9467C10.0422 14.3904 9.80851 14.8304 9.37644 14.9596Z" fill="#1D1D1D"/>
<path d="M27.0038 14.9602C26.2605 14.9615 25.8081 13.9763 26.4957 13.5416C26.7605 13.3742 27.6586 13.0263 27.9632 12.9566C28.7431 12.8759 29.0685 13.9155 28.4252 14.3513C28.1191 14.5587 27.3755 14.8177 27.0038 14.9602Z" fill="#1D1D1D"/>
<path d="M8.60097 18.6676H4.04434C3.66702 18.6713 3.23453 18.7356 2.93482 18.4465C2.40767 17.9383 2.81777 17.1559 3.64325 17.1539L8.21675 17.1537C8.54686 17.1548 8.93233 17.1021 9.20226 17.3386C9.7149 17.7878 9.43981 18.6689 8.60097 18.6676Z" fill="#1D1D1D"/>
<path d="M32.5713 18.6669L28.9145 18.6662C28.4389 18.6663 27.2716 18.7664 26.942 18.5057C26.331 18.0221 26.7142 17.2157 27.4125 17.1532C27.7505 17.1364 28.0955 17.1523 28.4344 17.1525L31.7744 17.1509C32.3367 17.1491 33.2265 17.061 33.2956 17.8637C33.3303 18.2679 32.9523 18.6391 32.5713 18.6669Z" fill="#1D1D1D"/>
<path d="M8.19841 22.5637C7.484 22.5748 7.03345 21.8204 7.54127 21.2422C7.75801 20.9954 8.71306 20.5999 9.10643 20.5747C9.77722 20.3706 10.2262 21.4761 9.56281 21.9524C9.29837 22.1421 8.53194 22.4642 8.19841 22.5637Z" fill="#1D1D1D"/>
<path d="M28.1634 22.4931C27.9233 22.5197 26.7592 22.1412 26.517 22.0178C25.8139 21.6597 26.1034 20.7619 26.7566 20.5737C26.9981 20.5576 28.1203 20.9433 28.3513 21.0721C29.0029 21.4352 28.8583 22.3294 28.1634 22.4931Z" fill="#1D1D1D"/>
<path d="M7.981 28.7616C7.36856 28.8114 6.785 28.1944 7.19626 27.6066C7.39187 27.3269 7.68044 27.0881 7.91816 26.8438L9.52885 25.2015C9.9079 24.8179 10.3467 24.1525 10.8793 24.0444C11.4878 23.9013 11.9847 24.5169 11.695 25.0893C11.5644 25.3473 9.83624 27.0466 9.50096 27.3905C9.12432 27.7769 8.49706 28.6236 7.981 28.7616Z" fill="#1D1D1D"/>
<path d="M28.3728 28.7628C27.5811 28.9051 26.5727 27.4818 26.0169 26.9166C25.5658 26.4579 23.1336 24.5499 24.8631 24.0456C25.6056 24.0156 26.3124 25.0366 26.8308 25.5625L27.9739 26.7423C28.2536 27.0294 28.7031 27.3661 28.8698 27.7421C29.0632 28.1786 28.7715 28.6035 28.3728 28.7628Z" fill="#1D1D1D"/>
<path d="M18.1313 37C17.0796 37.0209 17.2959 35.9632 17.2954 35.2345L17.2947 28.1966C17.2949 27.3912 17.2605 26.5686 17.3022 25.7648C17.325 25.3267 17.5704 25.1491 17.9765 25.0649C19.0083 24.9598 18.7725 26.4334 18.7728 27.0558L18.7733 34.0131C18.7731 34.9231 19.1483 36.7698 18.1313 37Z" fill="#1D1D1D"/>
<path d="M14.1892 28.4072C12.8156 28.534 13.4662 26.7003 13.8898 26.1646C14.0285 25.9893 14.1652 25.9787 14.3722 25.9515C14.7951 25.7956 15.193 26.3087 15.1495 26.7061C15.0909 27.2418 14.7578 28.2049 14.1892 28.4072Z" fill="#1D1D1D"/>
<path d="M22.0726 28.4073C21.2908 28.5208 21.1381 27.6735 20.9301 27.0963C20.7217 26.5178 20.8677 26.1606 21.4364 25.9515C21.7954 25.9341 22.0363 26.0102 22.2226 26.3505C22.6166 27.0706 22.963 27.9668 22.0726 28.4073Z" fill="#1D1D1D"/>
</svg>
